<svg xmlns="http://www.w3.org/2000/svg" fill="none" viewBox="0 0 50 48">
  <path d="M48.53 23.894c0 12.578-10.59 22.84-23.738 22.84-13.147 0-23.738-10.262-23.738-22.84s10.591-22.84 23.738-22.84S48.53 11.316 48.53 23.894z" stroke="#E2E2E2" stroke-width="2.108"/>
  <path d="M25.011 18.361a5.683 5.683 0 00-5.682 5.683 5.652 5.652 0 005.682 5.682 5.683 5.683 0 005.683-5.682c0-3.113-2.57-5.683-5.683-5.683zm0 9.389a3.701 3.701 0 01-3.706-3.706c0-2.026 1.63-3.657 3.706-3.657a3.648 3.648 0 013.657 3.657c0 2.075-1.63 3.706-3.657 3.706zm7.214-9.586c0-.742-.592-1.335-1.334-1.335a1.33 1.33 0 00-1.334 1.335c0 .74.593 1.334 1.334 1.334.742 0 1.334-.593 1.334-1.334zm3.756 1.334c-.099-1.779-.494-3.36-1.779-4.645-1.285-1.285-2.866-1.68-4.645-1.779-1.828-.099-7.313-.099-9.141 0-1.78.099-3.31.494-4.645 1.779-1.285 1.285-1.68 2.866-1.779 4.645-.099 1.828-.099 7.313 0 9.141.099 1.78.494 3.31 1.779 4.645 1.334 1.285 2.866 1.68 4.645 1.779 1.828.099 7.313.099 9.141 0 1.78-.099 3.36-.494 4.645-1.779 1.285-1.334 1.68-2.866 1.779-4.645.099-1.828.099-7.313 0-9.141zm-2.372 11.068c-.346.989-1.136 1.73-2.075 2.125-1.483.593-4.942.445-6.523.445-1.63 0-5.09.148-6.522-.445a3.746 3.746 0 01-2.125-2.125c-.593-1.433-.445-4.892-.445-6.522 0-1.581-.148-5.04.445-6.523a3.811 3.811 0 012.125-2.075c1.433-.593 4.892-.445 6.522-.445 1.581 0 5.04-.148 6.523.445.939.346 1.68 1.136 2.075 2.075.593 1.483.445 4.942.445 6.523 0 1.63.148 5.09-.445 6.522z" fill="#DDDDD7"/>
</svg>
