<svg xmlns="http://www.w3.org/2000/svg" fill="none" viewBox="0 0 50 48">
  <path d="M48.53 23.894c0 12.578-10.59 22.84-23.738 22.84-13.147 0-23.738-10.262-23.738-22.84s10.591-22.84 23.738-22.84S48.53 11.316 48.53 23.894z" stroke="#E2E2E2" stroke-width="2.108"/>
  <path d="M16.293 18.323h.032c1.671 0 2.712-1.177 2.712-2.664-.032-1.514-1.04-2.659-2.681-2.659-1.642 0-2.716 1.148-2.716 2.664 0 1.486 1.043 2.66 2.653 2.66z" fill="#DDDDD7"/>
  <path fill-rule="evenodd" clip-rule="evenodd" d="M36.831 34.29h-5.415v-7.639c0-2-.848-3.364-2.71-3.364-1.425 0-2.217.92-2.586 1.809-.138.318-.117.762-.117 1.206v7.989h-5.365s.07-13.533 0-14.763h5.365v2.317c.317-1.013 2.032-2.459 4.767-2.459 3.394 0 6.061 2.123 6.061 6.696v8.209zm-22.67-14.904h4.318v14.905h-4.318V19.386z" fill="#DDDDD7"/>
</svg>
