<svg xmlns="http://www.w3.org/2000/svg" fill="none" viewBox="0 0 170 57">
  <path d="M0 43.722v-17.05h2.702v14.573h10.166v2.477H0zm15.357 0v-16.6h2.574v16.6h-2.574zm11.991.483c-1.008 0-1.877-.204-2.606-.611-.729-.408-1.297-1.008-1.705-1.802-.386-.793-.579-1.759-.579-2.895V29.31h-3.056v-2.187h3.056v-5.566h2.574v5.566h5.211v2.187h-5.211v9.458c0 .987.203 1.759.611 2.316.429.537 1.072.805 1.93.805.45 0 .9-.065 1.351-.193.472-.15.89-.343 1.255-.58l.772 1.995c-.45.322-.976.58-1.576.772-.6.215-1.276.322-2.027.322zm11.845 0c-1.008 0-1.877-.204-2.606-.611-.729-.408-1.297-1.008-1.705-1.802-.386-.793-.579-1.759-.579-2.895V29.31h-3.056v-2.187h3.056v-5.566h2.574v5.566h5.211v2.187h-5.211v9.458c0 .987.203 1.759.611 2.316.429.537 1.072.805 1.93.805.45 0 .9-.065 1.351-.193.472-.15.89-.343 1.255-.58l.772 1.995c-.45.322-.976.58-1.576.772-.6.215-1.276.322-2.027.322zm5.637-.483v-23.87h2.573v23.87h-2.574zm13.309.483c-1.223 0-2.349-.215-3.378-.643a8.018 8.018 0 01-2.638-1.802 8.402 8.402 0 01-1.737-2.767c-.408-1.072-.611-2.252-.611-3.538 0-1.266.193-2.424.579-3.475a8.917 8.917 0 011.672-2.798 7.63 7.63 0 012.542-1.834c.965-.45 2.016-.676 3.153-.676 1.093 0 2.101.204 3.023.612a7.28 7.28 0 012.445 1.705 7.445 7.445 0 011.577 2.605c.386 1.008.579 2.102.579 3.282v1.061h-12.9c.085 1.201.364 2.252.836 3.153.493.9 1.147 1.598 1.962 2.09.815.494 1.759.74 2.831.74 1.051 0 1.963-.214 2.735-.643.793-.45 1.469-1.104 2.026-1.962l2.188.997a6.928 6.928 0 01-1.673 2.091 7.162 7.162 0 01-2.38 1.32 8.176 8.176 0 01-2.831.482zM57.72 28.86c-.879 0-1.683.214-2.412.643-.708.43-1.309 1.03-1.802 1.802-.472.75-.783 1.63-.933 2.638h10.07c-.086-1.008-.354-1.887-.805-2.638-.45-.772-1.03-1.373-1.737-1.802-.708-.429-1.501-.643-2.38-.643zm15.678 4.85c1.93-2.171 3.579-4.262 4.946-6.273 1.407-2.05 2.513-3.94 3.317-5.67.684-1.568 1.086-2.915 1.207-4.041.16-1.166.1-2.091-.181-2.775-.282-.724-.704-1.166-1.267-1.327-.563-.2-1.186-.12-1.87.241-.683.362-1.387 1.026-2.111 1.99-.684.926-1.287 2.172-1.81 3.74-.563 1.73-1.045 3.64-1.447 5.73a55.723 55.723 0 00-.724 6.576 7.8 7.8 0 00-.06.965v.844zm-2.534-1.508c0-2.292.221-4.524.664-6.695a74.736 74.736 0 011.568-5.972c.684-1.97 1.548-3.559 2.594-4.765 1.045-1.246 2.09-2.111 3.136-2.593 1.086-.483 2.091-.604 3.016-.362.965.2 1.71.744 2.232 1.628.523.885.744 2.111.663 3.68-.08 1.568-.623 3.438-1.628 5.61-.925 2.05-2.192 4.241-3.8 6.574-1.609 2.292-3.559 4.685-5.851 7.178.08 1.85.362 3.297.844 4.343.523 1.045 1.126 1.548 1.81 1.508.603-.04 1.166-.302 1.689-.785a9.976 9.976 0 001.448-1.689c.442-.643.824-1.266 1.146-1.87.321-.643.583-1.125.784-1.447a.744.744 0 01.543-.543c.281-.08.522-.04.723.12.201.081.302.262.302.544 0 .281-.04.563-.12.844a29.057 29.057 0 01-1.147 2.172 11.85 11.85 0 01-1.447 2.05 9.026 9.026 0 01-1.81 1.69c-.643.442-1.387.703-2.232.783-1.085.121-1.97-.14-2.654-.784-.683-.683-1.206-1.588-1.568-2.714-.362-1.166-.603-2.493-.724-3.981a55.977 55.977 0 01-.18-4.524z" fill="#fff"/>
  <path d="M87.442 39.923c-1.045-.443-1.81-1.066-2.292-1.87-.483-.844-.764-1.79-.844-2.835-.684.16-1.227.543-1.629 1.146a5.041 5.041 0 00-.784 1.99c-.12.724-.1 1.428.06 2.112.201.683.583 1.166 1.146 1.447.443.242.885.342 1.327.302a3.9 3.9 0 001.207-.422 4.263 4.263 0 001.025-.845c.322-.362.583-.703.784-1.025zm10.073-2.111c-1.166 1.085-2.453 1.79-3.86 2.11-1.367.282-2.553.383-3.559.302a6.536 6.536 0 01-1.689 2.112 8.136 8.136 0 01-2.292 1.327 5.75 5.75 0 01-2.473.301 3.73 3.73 0 01-2.232-.844c-.804-.603-1.367-1.448-1.689-2.534-.321-1.085-.362-2.151-.12-3.197a5.007 5.007 0 011.568-2.654c.804-.764 1.93-1.146 3.378-1.146.04-.361.14-.764.302-1.206.321-.844.723-1.568 1.206-2.171.523-.644 1.066-.986 1.628-1.026.845-.12 1.488.201 1.93.965.443.724.745 1.629.905 2.715.201 1.045.282 2.11.242 3.197 0 1.045-.04 1.809-.121 2.292 2.292.12 4.242-.483 5.85-1.81.202-.201.423-.302.664-.302.282 0 .503.101.664.302.16.201.2.422.12.663a1.81 1.81 0 01-.422.604zm-11.52-2.654c.04 1.568.784 2.533 2.231 2.895.08-.483.141-.965.181-1.448a5.55 5.55 0 000-1.628 4.18 4.18 0 01-1.206.18h-1.206zm1.87-3.981c-.242.08-.503.321-.785.724-.281.361-.522.904-.724 1.628.322.04.704.06 1.147.06.442-.04.743.04.904.242a3.86 3.86 0 01-.12-.604c0-.281-.02-.582-.06-.904 0-.322-.04-.583-.121-.784-.04-.242-.121-.362-.242-.362z" fill="#fff"/>
  <path d="M94.93 44.447a6.664 6.664 0 010-1.267c0-.483.02-.965.06-1.448.04-.643.061-1.367.061-2.171-.04-.844-.12-1.669-.241-2.473a13.63 13.63 0 00-.543-2.292c-.241-.724-.563-1.327-.965-1.81-.161-.2-.181-.402-.06-.603.12-.201.341-.342.663-.422.322-.08.663-.08 1.025 0 .322.04.563.16.724.362.483.563.865 1.246 1.146 2.05.282.765.483 1.589.603 2.474.121.844.181 1.688.181 2.533.04.844.04 1.629 0 2.352-.04.523-.06 1.006-.06 1.448v1.267c.08.804.201 1.327.362 1.568a13.335 13.335 0 001.75-2.172 46.402 46.402 0 001.507-2.352c-.804-.925-1.347-2.07-1.629-3.438a16.377 16.377 0 01-.18-4.222c.08-.805.2-1.589.361-2.353a16.37 16.37 0 01.724-2.232c.523-1.326 1.146-2.312 1.87-2.955.764-.643 1.488-.945 2.172-.905.683 0 1.266.342 1.749 1.026.482.683.744 1.668.784 2.955.08 1.287-.161 2.895-.724 4.826-.523 1.89-1.468 4.061-2.835 6.514.563.563 1.247.764 2.051.603.804-.16 1.609-.482 2.413-.965a12.27 12.27 0 002.232-1.87c.723-.724 1.266-1.367 1.628-1.93.121-.241.282-.422.483-.543.201-.12.402-.08.603.12a.746.746 0 01.301.604c0 .201-.08.402-.241.603-.482.804-1.166 1.649-2.051 2.533a13.999 13.999 0 01-2.835 2.112c-.965.563-1.95.925-2.955 1.085-1.006.161-1.89-.06-2.654-.663a32.336 32.336 0 01-1.026 1.629 11.219 11.219 0 01-1.206 1.749 8.015 8.015 0 01-1.267 1.327c-.442.362-.864.543-1.266.543-.161 0-.382-.04-.664-.121-.241-.08-.502-.241-.784-.483-.282-.2-.543-.522-.784-.965-.241-.402-.402-.945-.483-1.628zm7.54-5.248c1.046-1.97 1.769-3.86 2.172-5.67.402-1.81.583-3.257.542-4.343-.04-1.085-.281-1.669-.723-1.749-.403-.12-.885.543-1.448 1.99-.563 1.247-.905 2.675-1.025 4.283-.121 1.005-.161 1.99-.121 2.956.08.965.281 1.81.603 2.533z" fill="#fff"/>
  <path d="M116.534 33.469c-.522 1.005-1.166 1.729-1.93 2.171-.764.443-1.327.684-1.689.724-.04 1.81.181 3.096.664 3.86.523.724 1.186 1.106 1.99 1.147 1.086.08 2.192-.302 3.318-1.147 1.126-.884 2.171-2.11 3.136-3.679.161-.241.342-.382.543-.422.201-.04.402.04.603.241.201.16.302.382.302.664a1.3 1.3 0 01-.121.784c-1.045 1.85-2.292 3.257-3.739 4.222-1.408.925-2.795 1.428-4.162 1.508-1.448.08-2.654-.442-3.619-1.568-.965-1.166-1.468-3.137-1.508-5.911 0-.925.1-1.91.301-2.956.241-1.086.603-2.05 1.086-2.895.483-.845 1.086-1.468 1.81-1.87.723-.402 1.608-.402 2.654 0 .482.2.804.523.965.965.16.442.221.925.181 1.448a7.238 7.238 0 01-.302 1.568c-.161.482-.322.864-.483 1.146zm-3.739.784c.402.04.784-.08 1.146-.362.362-.282.683-.623.965-1.025.281-.402.482-.825.603-1.267.121-.442.141-.845.06-1.206-.161-.443-.382-.604-.663-.483-.282.08-.583.342-.905.784a8.817 8.817 0 00-.784 1.629 6.661 6.661 0 00-.422 1.93z" fill="#fff"/>
  <path d="M77.774 52.941c4.486 1.376 18.97 4.59 23.187 3.076 4.217-1.514 4.239-8.633 8.695-8.36 4.456.274 3.351 6.1 7.524 6.411 4.173.312 7.556-4.016 8.963-7.37 1.407-3.352.839-5.736.166-5.86-.674-.124-1.452 2.012-.799 4.1.653 2.09 2.738 4.133 5.189 4.398 2.45.266 5.265-1.244 6.134-3.609.868-2.365-.212-5.584-1.699-8.63-1.486-3.046-3.379-5.923-4.633-9.055-1.254-3.132-1.868-6.527-2.113-9.695-.245-3.167-.115-6.108.358-8.617.474-2.509 1.295-4.585 2.473-5.604 1.177-1.02 2.711-.983 4.057.311 1.347 1.294 2.508 3.84 3.556 5.55 1.049 1.709 1.988 2.583 2.886 2.117.897-.466 1.754-2.272 3.105-3.808 1.35-1.535 3.196-2.793 4.975-2.996 1.778-.203 3.491.661 4.968 2.557 1.477 1.895 2.72 4.823 3.211 8.501.491 3.678.231 8.107-1.041 11.902-1.272 3.794-3.55 6.963-5.734 9.37-2.184 2.406-4.267 4.053-6.318 5.975-2.05 1.921-4.067 4.114-5.205 5.792-1.139 1.678-1.399 2.837-1.141 3.553.258.716 1.037.989 1.46.43.422-.559.486-1.952-1.358-5.473-1.843-3.52-5.601-9.168-8.131-15.237-2.53-6.07-3.833-12.563-3.63-17.879.204-5.316 1.917-9.458 3.984-11.725C132.93.8 135.352.401 137.359 1.855c2.006 1.453 3.596 4.759 4.595 8.06.999 3.303 1.406 6.602 1.233 8.587-.174 1.985-.928 2.656-1.374 1.85-.446-.807-.583-3.09.357-5.383.939-2.293 2.957-4.598 4.985-5.734 2.027-1.136 4.071-1.106 6.016.585 1.944 1.69 3.797 5.04 4.093 9.25.296 4.212-.961 9.286-3.731 13.646-2.771 4.36-7.047 8.004-9.127 10.686-2.08 2.682-1.959 4.397-.838 5.886 1.122 1.49 3.248 2.753 5.705 2.15 2.457-.604 5.245-3.068 8.613-3.78 3.368-.714 7.321.332 11.272 1.375" stroke="#FFE6E6" stroke-width="1.086" stroke-miterlimit="2.61"/>
</svg>
