<svg xmlns="http://www.w3.org/2000/svg" fill="none" viewBox="0 0 50 48">
  <path d="M48.53 23.894c0 12.578-10.59 22.84-23.738 22.84-13.147 0-23.738-10.262-23.738-22.84s10.591-22.84 23.738-22.84S48.53 11.316 48.53 23.894z" stroke="#E2E2E2" stroke-width="2.108"/>
  <path d="M37.509 24.255c0-6.77-5.485-12.255-12.255-12.255C18.485 12 13 17.485 13 24.255c0 6.127 4.447 11.216 10.327 12.106v-8.549h-3.113v-3.558h3.113v-2.668c0-3.063 1.829-4.793 4.596-4.793 1.383 0 2.767.247 2.767.247v3.014h-1.532c-1.532 0-2.026.94-2.026 1.928v2.273h3.41l-.544 3.557h-2.866v8.549c5.88-.89 10.377-5.98 10.377-12.106z" fill="#DDDDD7"/>
</svg>
