<svg xmlns="http://www.w3.org/2000/svg" fill="none" viewBox="0 0 50 48">
  <path d="M48.53 23.894c0 12.578-10.59 22.84-23.738 22.84-13.147 0-23.738-10.262-23.738-22.84s10.591-22.84 23.738-22.84S48.53 11.316 48.53 23.894z" stroke="#E2E2E2" stroke-width="2.108"/>
  <path d="M34.68 19.09c.989-.742 1.878-1.631 2.57-2.669a9.724 9.724 0 01-2.965.79 5.07 5.07 0 002.273-2.865 10.954 10.954 0 01-3.26 1.285A5.189 5.189 0 0029.491 14a5.188 5.188 0 00-5.188 5.188c0 .396.05.791.148 1.186A15.053 15.053 0 0113.73 14.94c-.444.741-.691 1.63-.691 2.619 0 1.779.89 3.36 2.322 4.299-.84-.05-1.68-.247-2.372-.643v.05a5.195 5.195 0 004.151 5.09c-.395.098-.89.197-1.334.197-.346 0-.643-.05-.988-.099.642 2.075 2.569 3.558 4.842 3.607a10.431 10.431 0 01-6.424 2.224c-.444 0-.84-.05-1.235-.099 2.273 1.482 4.99 2.323 7.956 2.323 9.536 0 14.725-7.857 14.725-14.726v-.691z" fill="#DDDDD7"/>
</svg>
